<svg width="35" height="35" viewBox="0 0 35 35" fill="none" xmlns="http://www.w3.org/2000/svg">
<path fill-rule="evenodd" clip-rule="evenodd" d="M35 17.5C35 7.85082 27.1492 0 17.5 0C7.85082 0 0 7.85082 0 17.5C0 22.5966 2.19164 27.1905 5.68018 30.3915L5.66364 30.4061L6.23127 30.8846C6.25048 30.9009 6.27056 30.9155 6.2906 30.9302L6.29063 30.9302C6.30908 30.9437 6.32749 30.9572 6.34518 30.9718C6.64682 31.2219 6.95927 31.4593 7.27745 31.689C7.38055 31.7635 7.48364 31.8379 7.58864 31.9105C7.92845 32.1446 8.27718 32.3667 8.63355 32.5774C8.71118 32.6232 8.78945 32.6677 8.86773 32.7123C9.25782 32.9344 9.65618 33.1437 10.0641 33.3359C10.079 33.3429 10.0942 33.3496 10.1093 33.3563C10.1244 33.363 10.1395 33.3696 10.1545 33.3766C11.4838 33.9945 12.9029 34.4483 14.3869 34.7162L14.504 34.7372C14.9647 34.8167 15.4305 34.8804 15.9021 34.923C15.931 34.9256 15.9599 34.9277 15.9888 34.9297L15.9891 34.9298C16.0175 34.9318 16.0459 34.9338 16.0745 34.9364C16.5442 34.9752 17.0189 35 17.5 35C17.9766 35 18.4469 34.9752 18.914 34.9376C18.9436 34.9351 18.9732 34.933 19.0028 34.931C19.0324 34.9289 19.062 34.9268 19.0915 34.9243C19.5593 34.8816 20.0213 34.8199 20.4775 34.7416L20.493 34.7389C20.5274 34.7328 20.5622 34.7266 20.5965 34.72C22.0583 34.4578 23.457 34.0143 24.7692 33.4123C24.789 33.4031 24.8089 33.3942 24.8289 33.3853L24.8297 33.3849L24.8299 33.3848C24.8583 33.3722 24.8867 33.3594 24.9149 33.3461C25.3075 33.1615 25.6913 32.9624 26.0674 32.7505C26.1609 32.6976 26.2538 32.6442 26.3467 32.5895C26.6891 32.3877 27.0257 32.1771 27.3528 31.9531C27.4472 31.8888 27.5399 31.8217 27.633 31.7543L27.633 31.7543L27.7022 31.7043C27.9815 31.5032 28.2558 31.2957 28.5225 31.0787C28.549 31.0573 28.5765 31.0372 28.6039 31.0171L28.6039 31.017C28.6376 30.9923 28.6713 30.9676 28.7032 30.9406L29.2855 30.4545L29.2683 30.4398C32.7874 27.2376 35 22.6227 35 17.5ZM1.27273 17.5C1.27273 8.55209 8.55209 1.27273 17.5 1.27273C26.4479 1.27273 33.7273 8.55209 33.7273 17.5C33.7273 22.3217 31.6114 26.6566 28.2615 29.631C28.0745 29.5018 27.8861 29.386 27.6933 29.2893L22.3052 26.5955C21.8215 26.3537 21.5212 25.8675 21.5212 25.3273V23.4455C21.6459 23.2915 21.7776 23.1172 21.9138 22.9256C22.6113 21.9405 23.1706 20.8447 23.5785 19.6655C24.3848 19.2825 24.9054 18.4794 24.9054 17.5725V15.3166C24.9054 14.7649 24.703 14.2297 24.3409 13.8091V10.8392C24.374 10.5089 24.4911 8.645 23.1426 7.10755C21.9698 5.76864 20.0715 5.09091 17.5 5.09091C14.9285 5.09091 13.0302 5.76864 11.8574 7.10691C10.5089 8.64436 10.626 10.5083 10.6591 10.8385V13.8085C10.2976 14.2291 10.0946 14.7643 10.0946 15.316V17.5719C10.0946 18.2725 10.409 18.9261 10.9474 19.3671C11.4628 21.3863 12.5236 22.9148 12.9156 23.4328V25.2745C12.9156 25.7937 12.6325 26.271 12.1762 26.5205L7.14445 29.2651C6.98409 29.3523 6.825 29.4541 6.66591 29.568C3.35745 26.5949 1.27273 22.2867 1.27273 17.5ZM26.3404 31.0972C26.5701 30.9476 26.7966 30.7911 27.0194 30.6295C27.0436 30.612 27.0679 30.5948 27.0923 30.5775C27.1371 30.5457 27.1821 30.5139 27.2262 30.4805C27.1925 30.4627 27.1587 30.4449 27.1244 30.4277L21.7363 27.734C20.8186 27.2758 20.2485 26.3531 20.2485 25.3273V22.9734L20.4063 22.7933C20.5456 22.6335 20.7079 22.4248 20.8746 22.1894C21.553 21.231 22.0875 20.1536 22.463 18.9872L22.5648 18.6722L22.8811 18.5748C23.324 18.438 23.6326 18.0263 23.6326 17.5725V15.3166C23.6326 15.0207 23.5066 14.7445 23.2782 14.5384L23.0682 14.3487L23.0739 10.7208L23.074 10.7202C23.078 10.6822 23.2425 9.13891 22.1747 7.93291C21.252 6.89182 19.6802 6.36364 17.5 6.36364C15.3115 6.36364 13.7346 6.89627 12.8145 7.945C11.7365 9.17382 11.9242 10.7043 11.9261 10.7195L11.9318 10.8029V14.3475L11.7218 14.5371C11.4927 14.7439 11.3674 15.0195 11.3674 15.3154V17.5713C11.3674 17.9283 11.5506 18.2592 11.8567 18.4571L12.0737 18.5977L12.1316 18.8497C12.6515 21.1158 14.0274 22.7895 14.0414 22.8054L14.1877 22.9823L14.1884 25.2745C14.1884 26.2602 13.6506 27.1657 12.7852 27.6379L7.75345 30.3825L7.69236 30.4169C7.70668 30.4277 7.72067 30.4389 7.73467 30.45C7.74867 30.4611 7.76268 30.4723 7.777 30.4831C8.05445 30.6912 8.33955 30.8878 8.62845 31.0768C8.72009 31.1366 8.81236 31.1958 8.90527 31.2544C9.219 31.4504 9.53718 31.6381 9.86236 31.8118C9.89057 31.8271 9.91926 31.8417 9.94799 31.8562C9.96592 31.8653 9.98387 31.8744 10.0017 31.8837C10.3581 32.0689 10.7189 32.2445 11.0867 32.403L11.095 32.4068C11.4838 32.5735 11.8796 32.7244 12.2799 32.8605C12.2915 32.8644 12.3032 32.8684 12.3149 32.8724C12.3283 32.877 12.3417 32.8816 12.355 32.886C13.1613 33.1565 13.9892 33.3633 14.8305 33.5039L14.8839 33.5135C15.2816 33.5784 15.6832 33.6261 16.0866 33.6617C16.1385 33.6665 16.1908 33.6702 16.2431 33.674C16.2601 33.6752 16.2771 33.6764 16.2941 33.6776C16.6944 33.7075 17.0965 33.7273 17.5 33.7273C17.899 33.7273 18.2961 33.7082 18.6913 33.6783C18.7081 33.6771 18.7249 33.6759 18.7416 33.6747C18.7959 33.671 18.8498 33.6672 18.9038 33.6624C19.3035 33.6274 19.7018 33.5809 20.097 33.5166C20.1027 33.5157 20.1085 33.5146 20.1142 33.5134C20.1199 33.5123 20.1257 33.5112 20.1314 33.5103C20.5514 33.4409 20.9688 33.3563 21.3812 33.2545C21.3818 33.2545 21.3825 33.2543 21.3831 33.2541C21.3837 33.254 21.3844 33.2538 21.385 33.2538C21.7935 33.1526 22.1976 33.0349 22.5966 32.9025C22.6123 32.8974 22.6278 32.8921 22.6431 32.8869C22.6546 32.8829 22.666 32.879 22.6775 32.8752C23.4392 32.6187 24.1805 32.3031 24.8971 31.9359C24.9222 31.923 24.9474 31.9102 24.9725 31.8975C25.0167 31.8751 25.0607 31.8528 25.1045 31.8296C25.4164 31.6642 25.7218 31.4873 26.0222 31.3015C26.1185 31.2416 26.2128 31.1802 26.3074 31.1187L26.3404 31.0972Z" fill="#50E3B3"/>
</svg>
