<svg width="32" height="21" viewBox="0 0 32 21" fill="none" xmlns="http://www.w3.org/2000/svg">
<g id="united-kingdom">
<path id="Shape" d="M29.6034 0H2.39656C1.07294 0 0 1.0747 0 2.4005V18.5995C0 19.9252 1.07294 21 2.39656 21H29.6034C30.927 21 32 19.9253 32 18.5995V2.4005C32 1.0747 30.9271 0 29.6034 0Z" fill="#41479B"/>
<path id="Shape_2" d="M31.9668 2.00372C31.7779 0.866922 30.792 0 29.6034 0H28.9799L18.7586 6.70769V6.26027e-05H13.2414V6.70775L3.02012 6.26027e-05H2.39656C1.208 6.26027e-05 0.222062 0.866922 0.0331875 2.00379L8.76931 7.73694H0V13.2633H8.76931L0.0331875 18.9963C0.222062 20.1331 1.208 21 2.39656 21H3.02012L13.2414 14.2923V21H18.7586V14.2923L28.9799 21H29.6034C30.792 21 31.7779 20.1331 31.9668 18.9963L23.2307 13.2631H32V7.73681H23.2307L31.9668 2.00372Z" fill="#F5F5F5"/>
<g id="Group">
<path id="Shape_3" d="M17.6552 0.0172729H14.3448V8.84484H0V12.1552H14.3448V20.9828H17.6552V12.1552H32V8.84484H17.6552V0.0172729Z" fill="#FF4B55"/>
<path id="Shape_4" d="M1.5496 20.8282L13.211 13.2586H11.1843L0.576538 20.1444C0.836101 20.4473 1.16966 20.6847 1.5496 20.8282Z" fill="#FF4B55"/>
<path id="Shape_5" d="M21.6493 13.2586H19.6226L30.9173 20.5902C31.2334 20.3826 31.4971 20.1022 31.6852 19.773L21.6493 13.2586Z" fill="#FF4B55"/>
<path id="Shape_6" d="M0.253052 1.34217L10.1112 7.74136H12.1379L0.967177 0.490112C0.667239 0.713362 0.421802 1.00524 0.253052 1.34217Z" fill="#FF4B55"/>
<path id="Shape_7" d="M20.7854 7.74137L31.4126 0.842935C31.1502 0.540997 30.814 0.304997 30.4314 0.164185L18.7587 7.74137H20.7854Z" fill="#FF4B55"/>
</g>
</g>
</svg>
