<svg width="30" height="30" viewBox="0 0 30 30" fill="none" xmlns="http://www.w3.org/2000/svg">
<path fill-rule="evenodd" clip-rule="evenodd" d="M18.3438 10.5303H16.8432C16.4511 10.5303 16.3768 10.6716 16.3769 10.9323V12.1942H18.3439C18.5099 12.1942 18.6685 12.2622 18.779 12.3808C18.8896 12.4994 18.942 12.6581 18.923 12.816L18.6204 15.3298C18.5865 15.6115 18.3375 15.8239 18.0412 15.8239H16.3767V22.306C16.3767 22.6136 16.1151 22.864 15.7937 22.864H12.8549C12.5334 22.864 12.2719 22.6136 12.2719 22.306V15.7918H10.8667C10.5452 15.7918 10.2836 15.5415 10.2836 15.2338V12.7521C10.2836 12.4444 10.5452 12.1941 10.8667 12.1941H12.3582V10.6909C12.3089 10.3869 12.1969 9.15376 13.3677 8.12289C14.4403 7.17863 15.7923 7.10522 16.1811 7.10522C16.2292 7.10522 16.2635 7.10624 16.2832 7.10704H18.3438C18.6653 7.10704 18.9269 7.35733 18.9269 7.665V9.97238C18.9269 10.28 18.6653 10.5303 18.3438 10.5303ZM18.2619 12.822H16.0488C15.8676 12.822 15.7207 12.6815 15.7207 12.5081V10.9323C15.7207 10.2875 16.1404 9.90255 16.8433 9.90255H18.2709V7.73486H16.2759C16.2705 7.73486 16.2651 7.73474 16.2597 7.7345C16.2546 7.73425 16.2272 7.73308 16.1811 7.73308C15.8523 7.73308 14.7097 7.79451 13.8119 8.58494C12.8512 9.4308 12.9748 10.4216 13.0094 10.6116C13.0126 10.6294 13.0142 10.6474 13.0142 10.6654V12.5081C13.0142 12.6814 12.8673 12.822 12.6862 12.822H10.9397V15.1639H12.5999C12.781 15.1639 12.9279 15.3045 12.9279 15.4778V22.2361H15.7207V15.51C15.7207 15.3366 15.8675 15.1961 16.0487 15.1961H17.9761L18.2619 12.822Z" fill="#50E3B3"/>
<path d="M13.5883 17.6843C13.4071 17.6843 13.2603 17.8249 13.2603 17.9982V18.1552C13.2603 18.3286 13.4071 18.4691 13.5883 18.4691C13.7694 18.4691 13.9163 18.3286 13.9163 18.1552V17.9982C13.9163 17.8249 13.7694 17.6843 13.5883 17.6843Z" fill="#50E3B3"/>
<path d="M13.5883 18.8458C13.4071 18.8458 13.2603 18.9864 13.2603 19.1597V21.5455C13.2603 21.7189 13.4071 21.8594 13.5883 21.8594C13.7694 21.8594 13.9163 21.7189 13.9163 21.5455V19.1597C13.9163 18.9864 13.7694 18.8458 13.5883 18.8458Z" fill="#50E3B3"/>
<path d="M29.4353 15C29.4353 22.9724 22.9724 29.4353 15 29.4353C7.02761 29.4353 0.564706 22.9724 0.564706 15C0.564706 7.02761 7.02761 0.564706 15 0.564706C22.9724 0.564706 29.4353 7.02761 29.4353 15Z" stroke="#50E3B3" stroke-width="1.12941"/>
</svg>
