<svg width="24" height="22" viewBox="0 0 24 22" fill="none" xmlns="http://www.w3.org/2000/svg">
<path d="M21.1659 1.52271C20.1791 0.743795 19.008 0.241599 17.772 0.0776164C15.6489 -0.209353 13.5707 0.456825 12.0008 1.90192C10.431 0.441452 8.34278 -0.224726 6.20975 0.0673675C4.97378 0.236474 3.79762 0.743795 2.80586 1.53296C1.02168 2.96268 -0.00496567 5.09957 1.80609e-05 7.40558C1.80609e-05 9.37849 0.752561 11.2387 2.11312 12.6376L10.73 21.4978C11.0589 21.836 11.4875 22 11.9161 22C12.3447 22 12.7733 21.8309 13.1022 21.4978L14.4379 20.1245C14.7867 19.7657 14.7867 19.1816 14.4379 18.8177C14.089 18.459 13.5209 18.459 13.167 18.8177L11.9161 20.104L3.38397 11.3258C2.36231 10.2753 1.79914 8.88142 1.79416 7.39533C1.79416 5.66839 2.56166 4.05931 3.90726 2.98318C4.64485 2.39387 5.52199 2.01466 6.44398 1.89167C8.14842 1.66107 9.81298 2.23501 11.0141 3.47512L12.0008 4.48977L12.9777 3.48537C14.1737 2.25038 15.8383 1.67644 17.5378 1.90704C18.4598 2.03003 19.3319 2.40412 20.0695 2.98318C21.4749 4.09518 22.2524 5.77088 22.2025 7.57468C22.1627 8.99415 21.5596 10.3726 20.5131 11.4539L15.9679 16.1223C15.619 16.481 15.619 17.0652 15.9679 17.429C16.3167 17.7877 16.8849 17.7877 17.2387 17.429L21.7839 12.7555C23.1594 11.3412 23.9468 9.52197 23.9967 7.62593C24.0665 5.22256 23.0348 2.99855 21.1659 1.52271Z" fill="#EB5E55"/>
</svg>
