<svg width="21" height="21" viewBox="0 0 21 21" fill="none" xmlns="http://www.w3.org/2000/svg">
<g opacity="0.5">
<path fill-rule="evenodd" clip-rule="evenodd" d="M10.5 0C13.3047 0 15.9414 1.07772 17.9246 3.03475C19.9078 4.99167 21 7.59352 21 10.3611C21 13.1287 19.9078 15.7306 17.9246 17.6875C15.9414 19.6445 13.3047 20.7222 10.5 20.7222C7.69531 20.7222 5.05858 19.6445 3.07543 17.6875C1.09216 15.7306 0 13.1287 0 10.3611C0 7.59352 1.09216 4.99167 3.07543 3.03475C5.05858 1.07772 7.69531 0 10.5 0ZM0.836644 10.3611C0.836644 15.619 5.17163 19.8966 10.5 19.8966C15.8284 19.8966 20.1634 15.619 20.1634 10.3611C20.1634 5.10321 15.8284 0.82557 10.5 0.82557C5.17163 0.82557 0.836644 5.10317 0.836644 10.3611Z" fill="black"/>
<path d="M18.9546 12.0663C18.7305 12.0099 18.5029 12.1435 18.446 12.3645C18.2127 13.2686 17.8243 14.1201 17.2917 14.8952C17.1621 15.0839 17.212 15.3405 17.4033 15.4685C17.4752 15.5166 17.5568 15.5396 17.6377 15.5396C17.7717 15.5396 17.9034 15.4762 17.9843 15.3584C18.5713 14.504 18.9995 13.5652 19.2567 12.5682C19.3138 12.3472 19.1785 12.1225 18.9546 12.0663Z" fill="black"/>
<path d="M19.1176 9.94832C18.8866 9.94832 18.6992 10.1332 18.6992 10.3611C18.6992 10.4791 18.6967 10.5981 18.6915 10.7148C18.6815 10.9426 18.8605 11.1352 19.0914 11.145C19.0975 11.1453 19.1036 11.1454 19.1098 11.1454C19.3325 11.1454 19.5177 10.9721 19.5274 10.7505C19.533 10.6219 19.5359 10.4909 19.5359 10.3611C19.5359 10.1332 19.3486 9.94832 19.1176 9.94832Z" fill="black"/>
<path fill-rule="evenodd" clip-rule="evenodd" d="M9.03586 8.44164C9.03586 7.64501 9.69268 6.99687 10.5 6.99687C11.3073 6.99687 11.9641 7.64497 11.9641 8.44164V15.6242C11.9641 16.4209 11.3073 17.069 10.5 17.069C9.69268 17.069 9.03586 16.4209 9.03586 15.6242V8.44164ZM10.5 16.2434C10.846 16.2434 11.1275 15.9657 11.1275 15.6242V8.44164C11.1275 8.10021 10.846 7.82244 10.5 7.82244C10.154 7.82244 9.8725 8.10021 9.8725 8.44164V15.6242C9.8725 15.9657 10.154 16.2434 10.5 16.2434Z" fill="black"/>
<path fill-rule="evenodd" clip-rule="evenodd" d="M10.5 3.65323C10.8849 3.65323 11.2622 3.80727 11.535 4.07593C11.8079 4.34516 11.9641 4.71755 11.9641 5.098C11.9641 5.47784 11.808 5.85015 11.5357 6.11938C11.2622 6.38868 10.8849 6.54276 10.5 6.54276C10.115 6.54276 9.73772 6.38868 9.46488 6.11998C9.19197 5.85011 9.03586 5.4778 9.03586 5.098C9.03586 4.71755 9.19209 4.3452 9.46451 4.07629C9.73776 3.80727 10.1151 3.65323 10.5 3.65323ZM10.5 5.71719C10.665 5.71719 10.8269 5.65098 10.9441 5.53563C11.0604 5.42061 11.1275 5.2609 11.1275 5.098C11.1275 4.93489 11.0605 4.7753 10.9438 4.66008C10.8269 4.54505 10.665 4.47884 10.5 4.47884C10.3349 4.47884 10.173 4.54505 10.0558 4.6604C9.93948 4.77522 9.8725 4.93485 9.8725 5.09804C9.8725 5.26086 9.93961 5.42061 10.0565 5.53628C10.173 5.65098 10.3349 5.71719 10.5 5.71719Z" fill="black"/>
</g>
</svg>
