<svg width="21" height="21" viewBox="0 0 21 21" fill="none" xmlns="http://www.w3.org/2000/svg">
<path fill-rule="evenodd" clip-rule="evenodd" d="M10.4677 0C13.2638 0 15.8924 1.0888 17.8695 3.06597C19.8466 5.04302 20.9354 7.67163 20.9354 10.4677C20.9354 13.2638 19.8466 15.8924 17.8695 17.8695C15.8924 19.8466 13.2638 20.9354 10.4677 20.9354C7.67163 20.9354 5.04302 19.8466 3.06597 17.8695C1.0888 15.8924 0 13.2638 0 10.4677C0 7.67163 1.0888 5.04302 3.06597 3.06597C5.04302 1.0888 7.67163 0 10.4677 0ZM0.834062 10.4677C0.834062 15.7797 5.15571 20.1013 10.4677 20.1013C15.7797 20.1013 20.1013 15.7797 20.1013 10.4677C20.1013 5.15571 15.7797 0.834062 10.4677 0.834062C5.15571 0.834062 0.834062 5.15567 0.834062 10.4677Z" fill="white"/>
<path d="M18.8963 12.1904C18.6729 12.1335 18.446 12.2684 18.3893 12.4916C18.1566 13.4051 17.7695 14.2653 17.2385 15.0484C17.1093 15.239 17.1591 15.4983 17.3497 15.6276C17.4214 15.6762 17.5028 15.6995 17.5834 15.6995C17.717 15.6995 17.8484 15.6354 17.929 15.5164C18.5142 14.6532 18.941 13.7047 19.1975 12.6975C19.2543 12.4743 19.1195 12.2472 18.8963 12.1904Z" fill="white"/>
<path d="M19.0587 10.0507C18.8284 10.0507 18.6417 10.2374 18.6417 10.4677C18.6417 10.5869 18.6391 10.7071 18.634 10.825C18.624 11.0551 18.8025 11.2497 19.0326 11.2597C19.0388 11.26 19.0449 11.2601 19.051 11.2601C19.273 11.2601 19.4576 11.085 19.4673 10.861C19.4729 10.7312 19.4758 10.5989 19.4758 10.4677C19.4758 10.2374 19.289 10.0507 19.0587 10.0507Z" fill="white"/>
<path fill-rule="evenodd" clip-rule="evenodd" d="M9.00806 8.52847C9.00806 7.72364 9.66286 7.06884 10.4677 7.06884C11.2725 7.06884 11.9273 7.7236 11.9273 8.52847V15.785C11.9273 16.5898 11.2725 17.2446 10.4677 17.2446C9.66286 17.2446 9.00806 16.5898 9.00806 15.785V8.52847ZM10.4677 16.4105C10.8126 16.4105 11.0933 16.1299 11.0933 15.785V8.52847C11.0933 8.18353 10.8126 7.9029 10.4677 7.9029C10.1227 7.9029 9.84212 8.18353 9.84212 8.52847V15.785C9.84212 16.1299 10.1227 16.4105 10.4677 16.4105Z" fill="white"/>
<path fill-rule="evenodd" clip-rule="evenodd" d="M10.4677 3.6908C10.8514 3.6908 11.2275 3.84643 11.4995 4.11785C11.7716 4.38985 11.9273 4.76607 11.9273 5.15043C11.9273 5.53418 11.7717 5.91032 11.5002 6.18232C11.2276 6.4544 10.8514 6.61006 10.4677 6.61006C10.0839 6.61006 9.70776 6.4544 9.43576 6.18293C9.16368 5.91028 9.00806 5.53414 9.00806 5.15043C9.00806 4.76607 9.1638 4.38989 9.43539 4.11822C9.7078 3.84643 10.0839 3.6908 10.4677 3.6908ZM10.4677 5.776C10.6322 5.776 10.7935 5.70911 10.9104 5.59257C11.0264 5.47636 11.0933 5.31501 11.0932 5.15043C11.0932 4.98565 11.0265 4.82442 10.9101 4.70801C10.7936 4.5918 10.6322 4.52491 10.4677 4.52491C10.3031 4.52491 10.1417 4.5918 10.0249 4.70834C9.90889 4.82434 9.84212 4.98561 9.84212 5.15047C9.84212 5.31497 9.90901 5.47636 10.0255 5.59322C10.1417 5.70911 10.3031 5.776 10.4677 5.776Z" fill="white"/>
</svg>
