<svg width="30" height="30" viewBox="0 0 30 30" fill="none" xmlns="http://www.w3.org/2000/svg">
<path d="M29.4353 15C29.4353 22.9724 22.9724 29.4353 15 29.4353C7.02761 29.4353 0.564706 22.9724 0.564706 15C0.564706 7.02761 7.02761 0.564706 15 0.564706C22.9724 0.564706 29.4353 7.02761 29.4353 15Z" stroke="white" stroke-width="1.12941"/>
<path fill-rule="evenodd" clip-rule="evenodd" d="M11.814 7.10522H18.186C20.7715 7.10522 22.875 9.20868 22.875 11.7942V18.2057C22.875 20.7912 20.7715 22.8947 18.186 22.8947H11.814C9.22848 22.8947 7.125 20.7912 7.125 18.2057V11.7942C7.125 9.20868 9.22848 7.10522 11.814 7.10522ZM18.186 22.2656C20.4247 22.2656 22.2459 20.4444 22.2459 18.2057V11.7942C22.2459 9.55555 20.4247 7.73431 18.186 7.73431H11.814C9.57533 7.73431 7.75408 9.55555 7.75408 11.7942V18.2057C7.75408 20.4444 9.57533 22.2656 11.814 22.2656H18.186Z" fill="white"/>
<path fill-rule="evenodd" clip-rule="evenodd" d="M11.814 8.90295H18.186C19.7803 8.90295 21.0773 10.2 21.0773 11.7942V18.2058C21.0773 19.8 19.7803 21.0971 18.186 21.0971H11.814C10.2197 21.0971 8.92267 19.8 8.92267 18.2058V11.7942C8.92267 10.1999 10.2197 8.90295 11.814 8.90295ZM18.186 20.4679C19.4334 20.4679 20.4482 19.4531 20.4482 18.2057V11.7942C20.4482 10.5468 19.4334 9.532 18.186 9.532H11.814V9.53197C10.5666 9.53197 9.55172 10.5468 9.55172 11.7942V18.2057C9.55172 19.4531 10.5666 20.4679 11.814 20.4679H18.186Z" fill="white"/>
<path fill-rule="evenodd" clip-rule="evenodd" d="M10.9348 14.9999C10.9348 12.7583 12.7585 10.9347 15 10.9347C17.2416 10.9347 19.0652 12.7583 19.0652 14.9999C19.0652 17.2415 17.2416 19.0651 15 19.0651C12.7584 19.0651 10.9348 17.2415 10.9348 14.9999ZM11.5639 14.9999C11.5639 16.8946 13.1053 18.436 15 18.436C16.8947 18.436 18.4361 16.8946 18.4361 14.9999C18.4361 13.1052 16.8947 11.5638 15 11.5638C13.1053 11.5638 11.5639 13.1052 11.5639 14.9999Z" fill="white"/>
<path fill-rule="evenodd" clip-rule="evenodd" d="M12.6884 14.9999C12.6884 13.7252 13.7254 12.6882 15 12.6882C16.2746 12.6882 17.3116 13.7252 17.3116 14.9999C17.3116 16.2745 16.2747 17.3115 15 17.3115C13.7254 17.3115 12.6884 16.2745 12.6884 14.9999ZM13.3174 14.9999C13.3174 15.9277 14.0722 16.6825 15 16.6825C15.9278 16.6825 16.6826 15.9277 16.6826 14.9999C16.6826 14.0721 15.9278 13.3173 15 13.3173C14.0722 13.3173 13.3174 14.0721 13.3174 14.9999Z" fill="white"/>
<path fill-rule="evenodd" clip-rule="evenodd" d="M17.8622 11.161C17.8622 10.6224 18.3004 10.1842 18.8389 10.1842C19.3775 10.1842 19.8157 10.6224 19.8157 11.161C19.8157 11.6996 19.3775 12.1377 18.8389 12.1377C18.3003 12.1377 17.8622 11.6996 17.8622 11.161ZM18.4913 11.161C18.4913 11.3527 18.6472 11.5086 18.8389 11.5086C19.0307 11.5086 19.1866 11.3527 19.1866 11.161C19.1866 10.9693 19.0306 10.8133 18.8389 10.8133C18.6472 10.8133 18.4913 10.9692 18.4913 11.161Z" fill="white"/>
<path d="M14.4968 21.385H11.5402C11.3665 21.385 11.2256 21.5258 11.2256 21.6995C11.2256 21.8732 11.3665 22.0141 11.5402 22.0141H14.4968C14.6705 22.0141 14.8113 21.8732 14.8113 21.6995C14.8113 21.5258 14.6705 21.385 14.4968 21.385Z" fill="white"/>
<path d="M15.692 21.385H15.5032C15.3296 21.385 15.1887 21.5258 15.1887 21.6995C15.1887 21.8732 15.3296 22.0141 15.5032 22.0141H15.692C15.8657 22.0141 16.0065 21.8732 16.0065 21.6995C16.0065 21.5258 15.8657 21.385 15.692 21.385Z" fill="white"/>
</svg>
