<svg width="30" height="30" viewBox="0 0 30 30" fill="none" xmlns="http://www.w3.org/2000/svg">
<path d="M29.4353 15C29.4353 22.9724 22.9724 29.4353 15 29.4353C7.02761 29.4353 0.564706 22.9724 0.564706 15C0.564706 7.02761 7.02761 0.564706 15 0.564706C22.9724 0.564706 29.4353 7.02761 29.4353 15Z" stroke="white" stroke-width="1.12941"/>
<path fill-rule="evenodd" clip-rule="evenodd" d="M7.9053 11.9825H10.9488C11.257 11.9825 11.5078 12.2334 11.5078 12.5416V22.3189C11.5078 22.6272 11.257 22.878 10.9488 22.878H7.9053C7.59703 22.878 7.34625 22.6272 7.34625 22.319V12.5416C7.34625 12.2333 7.59706 11.9825 7.9053 11.9825ZM7.97533 22.249H10.8788V12.6116H7.97533V22.249Z" fill="white"/>
<path fill-rule="evenodd" clip-rule="evenodd" d="M9.42813 7.12195C10.0473 7.12195 10.6299 7.3636 11.0688 7.80228C11.5077 8.24106 11.7494 8.8236 11.7494 9.44263C11.7494 10.7227 10.7081 11.7641 9.42813 11.7641C8.1473 11.7641 7.10529 10.7227 7.10529 9.4426C7.10529 8.163 8.1473 7.12195 9.42813 7.12195ZM7.73434 9.4426C7.73434 10.3758 8.4942 11.135 9.42813 11.135C10.3612 11.135 11.1203 10.3758 11.1203 9.4426C11.1203 8.99167 10.9441 8.56712 10.6241 8.2472C10.304 7.92724 9.8793 7.75103 9.42813 7.75103C8.49417 7.75103 7.73434 8.50985 7.73434 9.4426Z" fill="white"/>
<path fill-rule="evenodd" clip-rule="evenodd" d="M18.6901 11.7395C20.3495 11.7395 21.5276 12.3104 22.1916 13.4362C22.8148 14.493 22.8947 15.8723 22.8947 16.9559V22.3191C22.8947 22.6273 22.6439 22.8781 22.3357 22.8781H19.2978C18.9895 22.8781 18.7387 22.6273 18.7387 22.3191V17.5653C18.7387 15.9681 18.5192 15.5308 17.7173 15.5308C16.8971 15.5308 16.4527 15.8416 16.4527 17.4814V22.3189C16.4527 22.6272 16.2019 22.878 15.8937 22.878H12.8568C12.5486 22.878 12.2978 22.6271 12.2978 22.3189V12.5415C12.2978 12.2333 12.5486 11.9825 12.8568 11.9825H15.7715C16.0592 11.9825 16.2969 12.201 16.3273 12.4807C16.8442 12.1043 17.621 11.7395 18.6901 11.7395ZM19.3678 22.249H22.2657H22.2657V16.9559C22.2657 14.5734 21.8325 12.3686 18.6901 12.3686C17.3803 12.3686 16.5977 13.0081 16.2477 13.3893C16.1601 13.4848 16.0228 13.5168 15.9019 13.4697C15.7811 13.4226 15.7015 13.3062 15.7015 13.1766V12.6116H12.9269V22.2489H15.8237V17.4814C15.8237 16.2058 16.0487 14.9017 17.7173 14.9017C18.4156 14.9017 18.8938 15.1933 19.1388 15.7684C19.3501 16.2645 19.3678 16.9281 19.3678 17.5653V22.249Z" fill="white"/>
<path d="M8.615 18.3341C8.44129 18.3341 8.30048 18.4749 8.30048 18.6486V21.5738C8.30048 21.7475 8.44129 21.8883 8.615 21.8883C8.78872 21.8883 8.92953 21.7475 8.92953 21.5738V18.6486C8.92953 18.4749 8.78872 18.3341 8.615 18.3341Z" fill="white"/>
<path d="M8.615 17.0131C8.44129 17.0131 8.30048 17.1539 8.30048 17.3276V17.6107C8.30048 17.7844 8.44129 17.9252 8.615 17.9252C8.78872 17.9252 8.92953 17.7844 8.92953 17.6107V17.3276C8.92953 17.1539 8.78872 17.0131 8.615 17.0131Z" fill="white"/>
</svg>
