<svg width="18" height="18" viewBox="0 0 18 18" fill="none" xmlns="http://www.w3.org/2000/svg">
<path d="M15.1875 0H2.8125C1.26169 0 0 1.26169 0 2.8125V4.21875C0 4.60709 0.314789 4.92188 0.703125 4.92188C1.09146 4.92188 1.40625 4.60709 1.40625 4.21875V2.8125C1.40625 2.03709 2.03709 1.40625 2.8125 1.40625H15.1875C15.9629 1.40625 16.5938 2.03709 16.5938 2.8125V15.1875C16.5938 15.9629 15.9629 16.5938 15.1875 16.5938H2.8125C2.03709 16.5938 1.40625 15.9629 1.40625 15.1875V13.7812C1.40625 13.3929 1.09146 13.0781 0.703125 13.0781C0.314789 13.0781 0 13.3929 0 13.7812V15.1875C0 16.7383 1.26169 18 2.8125 18H15.1875C16.7383 18 18 16.7383 18 15.1875V2.8125C18 1.26169 16.7383 0 15.1875 0Z" fill="white"/>
<path d="M12.1255 7.43565L9.46458 4.71321C9.18654 4.42874 8.73598 4.42896 8.4582 4.71368C8.18042 4.9984 8.18063 5.45981 8.45866 5.74427L11.1193 8.46646C11.3968 8.75059 11.3968 9.21291 11.1193 9.49705C11.1183 9.4981 11.1173 9.4992 11.1163 9.50025L8.45535 12.2591C8.17917 12.5455 8.18195 13.0069 8.46158 13.2897C8.60024 13.43 8.78096 13.5 8.9616 13.5C9.1452 13.5 9.32873 13.4277 9.46792 13.2833L12.1275 10.5259C12.9581 9.67333 12.9575 8.28773 12.1255 7.43565Z" fill="white"/>
<path d="M8.28854 8.25H0.711462C0.318522 8.25 0 8.58577 0 9C0 9.41422 0.318522 9.75 0.711462 9.75H8.28854C8.68148 9.75 9 9.41422 9 9C9 8.58577 8.68148 8.25 8.28854 8.25Z" fill="white"/>
</svg>
