<svg width="38" height="38" viewBox="0 0 38 38" fill="none" xmlns="http://www.w3.org/2000/svg">
<path fill-rule="evenodd" clip-rule="evenodd" d="M14.9118 10.103L27.7451 19.0094C27.9043 19.1198 28 19.3033 28 19.4998C28 19.6964 27.9043 19.8799 27.7451 19.9903L14.9118 28.8967C14.8132 28.965 14.6982 29 14.5833 29C14.49 29 14.3961 28.9774 14.3109 28.9311C14.1196 28.8284 14 28.6265 14 28.4062V10.5935C14 10.3732 14.1196 10.1713 14.3103 10.0686C14.5017 9.96585 14.7327 9.97951 14.9118 10.103Z" fill="#6D7893"/>
<path fill-rule="evenodd" clip-rule="evenodd" d="M0 19C0 8.5234 8.5234 0 19 0C29.4766 0 38 8.5234 38 19C38 29.4766 29.4766 38 19 38C8.5234 38 0 29.4766 0 19ZM1.26667 19C1.26667 28.778 9.22197 36.7333 19 36.7333C28.778 36.7333 36.7333 28.778 36.7333 19C36.7333 9.22197 28.778 1.26667 19 1.26667C9.22197 1.26667 1.26667 9.22197 1.26667 19Z" fill="#6D7893"/>
</svg>
