<svg width="15" height="23" viewBox="0 0 15 23" fill="none" xmlns="http://www.w3.org/2000/svg">
<path fill-rule="evenodd" clip-rule="evenodd" d="M0 7.60997C0 3.52416 3.14925 0.199951 7.02 0.199951C10.8908 0.199951 14.04 3.52416 14.04 7.60992C14.04 8.83648 13.7495 10.0527 13.1993 11.1277L7.40389 22.1912C7.32677 22.3386 7.1798 22.43 7.02 22.43C6.8602 22.43 6.71323 22.3386 6.63611 22.1912L0.84281 11.1313C0.29052 10.0527 0 8.83652 0 7.60997ZM3.51002 7.60997C3.51002 9.65287 5.08462 11.315 7.02 11.315C8.95538 11.315 10.53 9.65287 10.53 7.60997C10.53 5.56706 8.95538 3.90498 7.02 3.90498C5.08462 3.90498 3.51002 5.56706 3.51002 7.60997Z" fill="#FCBD5F"/>
</svg>
