<svg width="23" height="24" viewBox="0 0 23 24" fill="none" xmlns="http://www.w3.org/2000/svg">
<g id="search">
<path id="Shape" fill-rule="evenodd" clip-rule="evenodd" d="M16.1066 15.0247L22.0933 21.0395L20.5021 22.6384L14.528 16.6371C12.9985 17.8537 11.0689 18.5824 8.97131 18.5824C4.02445 18.5824 0 14.5379 0 9.56741C0 4.59887 4.02418 0.554657 8.97131 0.554657C13.9184 0.554657 17.9429 4.59887 17.9429 9.56741C17.9429 11.6172 17.2573 13.5087 16.1066 15.0247ZM2.01909 9.56741C2.01909 13.4195 5.13815 16.5534 8.97131 16.5534C12.8048 16.5534 15.9235 13.4198 15.9238 9.56741C15.9238 5.71778 12.8048 2.5839 8.97131 2.5839C5.13815 2.5839 2.01909 5.71778 2.01909 9.56741Z" fill="#2F8A6C"/>
</g>
</svg>
