<svg width="30" height="30" viewBox="0 0 30 30" fill="none" xmlns="http://www.w3.org/2000/svg">
<path d="M29.4353 15C29.4353 22.9724 22.9724 29.4353 15 29.4353C7.02761 29.4353 0.564706 22.9724 0.564706 15C0.564706 7.02761 7.02761 0.564706 15 0.564706C22.9724 0.564706 29.4353 7.02761 29.4353 15Z" stroke="#50E3B3" stroke-width="1.12941"/>
<path fill-rule="evenodd" clip-rule="evenodd" d="M22.3725 10.3803C22.4744 10.3034 22.6141 10.2995 22.7195 10.3711C22.8253 10.4426 22.8736 10.5739 22.8393 10.697C22.8074 10.8134 22.6004 11.2834 21.2749 12.5172C21.2913 13.5781 21.0926 20.0521 14.0326 21.7271C13.9611 21.7429 13.2131 21.8991 12.1588 21.8991C10.7651 21.8991 8.83552 21.6262 7.22232 20.3936C7.11268 20.3101 7.07515 20.1625 7.13026 20.0366C7.18567 19.9104 7.31973 19.8389 7.45558 19.863L7.45577 19.863C7.49002 19.8688 9.73286 20.2482 11.2579 19.0595C10.5146 18.8797 9.34645 18.35 8.87068 16.7911C8.83969 16.69 8.86502 16.5799 8.93652 16.5021C9.00027 16.4326 9.09352 16.3986 9.18528 16.4072C8.4965 15.9247 7.76422 15.052 7.78895 13.5286C7.79104 13.4167 7.85509 13.3153 7.95548 13.2658C8.05618 13.2163 8.17564 13.2274 8.26502 13.2942C8.31328 13.3296 8.39401 13.3821 8.49352 13.4352C7.93046 12.6312 7.31437 11.227 8.23493 9.62842C8.28349 9.54372 8.37018 9.48854 8.4673 9.48019C8.56442 9.47154 8.65916 9.51151 8.72172 9.58607C8.74853 9.61798 11.3463 12.6866 14.5454 12.7227C14.523 12.5635 14.5117 12.4027 14.5117 12.2416C14.5117 10.3693 16.0132 8.84583 17.8591 8.84583C18.7212 8.84583 19.5313 9.1733 20.1551 9.77098C20.5614 9.76025 21.2449 9.65497 21.931 9.1557C22.0188 9.09188 22.1344 9.08054 22.233 9.12707C22.3314 9.1733 22.3966 9.26963 22.4034 9.37819C22.41 9.48318 22.3969 9.94009 21.7871 10.6243C22.0212 10.5622 22.2387 10.4817 22.3725 10.3803ZM20.6764 12.4105C20.6705 12.3201 20.7053 12.2321 20.7718 12.171C21.1805 11.7946 21.4793 11.4945 21.698 11.2595C21.2979 11.3463 20.944 11.3773 20.8746 11.383C20.7453 11.3946 20.6213 11.3174 20.5734 11.1945C20.5254 11.0719 20.5632 10.9326 20.6666 10.8512C21.0321 10.5637 21.2806 10.3111 21.4498 10.1002C20.8635 10.3356 20.3446 10.3728 20.0288 10.3684C19.9501 10.3669 19.8747 10.3344 19.8199 10.2777C19.2983 9.73907 18.6021 9.44261 17.86 9.44261C16.3427 9.44261 15.1081 10.6982 15.1081 12.2419C15.1081 12.477 15.1373 12.712 15.1945 12.9401C15.216 13.0263 15.1981 13.1176 15.1457 13.1892C15.0929 13.2608 15.011 13.3055 14.9225 13.3106C11.9014 13.4841 9.40782 11.1862 8.56591 10.3019C7.79044 12.1787 9.42599 13.6339 9.50047 13.6989C9.58835 13.7752 9.62381 13.8957 9.59133 14.0076C9.55886 14.1194 9.46472 14.202 9.34972 14.2193C9.01546 14.2703 8.67733 14.1758 8.41308 14.0601C8.65678 15.962 10.3984 16.3518 10.4785 16.3688C10.6042 16.3953 10.699 16.4994 10.7133 16.6271C10.7276 16.755 10.6588 16.8776 10.542 16.9316C10.2587 17.0622 9.90295 17.0801 9.61457 17.0637C10.3308 18.5534 11.8951 18.5648 11.91 18.5552H11.913C12.0295 18.5552 12.1358 18.6235 12.1841 18.73C12.2329 18.8374 12.2139 18.9638 12.1352 19.0518C11.0946 20.2215 9.60087 20.4947 8.55906 20.5236C11.0246 21.7464 13.8688 21.1523 13.9013 21.1455C21.0563 19.4482 20.6952 12.6968 20.6764 12.4105Z" fill="#50E3B3"/>
</svg>
